<svg xmlns="http://www.w3.org/2000/svg" viewBox="0 0 237.32 279.45"><title>sync</title><g id="Layer_2" data-name="Layer 2"><g id="Layer_1-2" data-name="Layer 1"><path d="M19,134.78C21,91.05,52,54.13,93,43.08l-3.14,3.15a9.42,9.42,0,1,0,13.31,13.32l21.63-21.63a9.42,9.42,0,0,0,0-13.32L103,2.76A9.42,9.42,0,1,0,89.63,16.08l6.87,6.86C43.7,33.08,2.66,79,.13,133.91A117.77,117.77,0,0,0,33,221.56a9.42,9.42,0,1,0,13.6-13A99.09,99.09,0,0,1,19,134.78Z" fill="#0080ff"/><path d="M237.32,139.5A118,118,0,0,0,203,56a9.42,9.42,0,0,0-13.39,13.25,100.33,100.33,0,0,1,.08,140.77A98.27,98.27,0,0,1,137,237.74l4.53-4.52a9.42,9.42,0,0,0-13.32-13.32l-21.63,21.63a9.42,9.42,0,0,0,0,13.32l21.84,21.84a9.42,9.42,0,0,0,13.32-13.32l-6.32-6.31A117.92,117.92,0,0,0,237.32,139.5Z" fill="#0080ff"/></g></g></svg>